<svg xmlns="http://www.w3.org/2000/svg" width="1000" height="1000" viewBox="0 0 1000 1000">
  <defs>
    <pattern id="babyDots" width="140" height="140" patternUnits="userSpaceOnUse">
      <circle cx="35" cy="35" r="7" fill="#C9DCC9"/>
      <circle cx="105" cy="105" r="7" fill="#DCC9D2"/>
      <circle cx="105" cy="35" r="4" fill="#C9D2DC"/>
    </pattern>
  </defs>
  <rect width="1000" height="1000" fill="#E8F0E8"/>
  <rect width="1000" height="1000" fill="url(#babyDots)" opacity="0.5"/>
  <g fill="#E3C7CE" opacity="0.7">
    <path d="M90 120 c -14 -18 -42 -6 -42 14 c 0 18 30 34 42 44 c 12 -10 42 -26 42 -44 c 0 -20 -28 -32 -42 -14 z"/>
    <path d="M910 880 c -14 -18 -42 -6 -42 14 c 0 18 30 34 42 44 c 12 -10 42 -26 42 -44 c 0 -20 -28 -32 -42 -14 z"/>
  </g>
</svg>
